<?xml version="1.0" encoding="UTF-8" standalone="no"?>
<svg
        width="500"
        zoomAndPan="magnify"
        viewBox="0 0 375 374.999991"
        height="500"
        preserveAspectRatio="xMidYMid meet"
        version="1.0"
        id="svg13"
        xmlns="http://www.w3.org/2000/svg"
>
    <defs
            id="defs3">
        <g
                id="g1"/>
        <clipPath
                id="a97cccba92">
            <path
                    d="M 72.273438 113.816406 L 302.703125 113.816406 L 302.703125 261 L 72.273438 261 Z M 72.273438 113.816406 "
                    clip-rule="nonzero"
                    id="path1"/>
        </clipPath>
        <clipPath
                id="8b3fd0260b">
            <path
                    d="M 72.273438 114 L 302.703125 114 L 302.703125 261 L 72.273438 261 Z M 72.273438 114 "
                    clip-rule="nonzero"
                    id="path2"/>
        </clipPath>
        <clipPath
                id="00a36e873c">
            <path
                    d="M 149 56.25 L 226 56.25 L 226 318.75 L 149 318.75 Z M 149 56.25 "
                    clip-rule="nonzero"
                    id="path3"/>
        </clipPath>
    </defs>
    <g
            clip-path="url(#a97cccba92)"
            id="g4">
        <path
                fill="#ff751f"
                d="M 94.371094 164.613281 C 98.609375 169.09375 103.4375 173.734375 108.789062 178.441406 C 114.15625 183.15625 120.046875 187.933594 126.339844 192.6875 C 138.929688 202.203125 153.148438 211.605469 167.925781 220.199219 C 182.710938 228.785156 198.03125 236.535156 212.734375 242.863281 C 227.445312 249.203125 241.472656 254.046875 253.816406 257.121094 C 259.980469 258.648438 265.730469 259.738281 270.941406 260.359375 C 276.15625 260.980469 280.8125 261.109375 284.839844 260.773438 C 292.90625 260.09375 298.410156 257.496094 300.964844 253.1875 C 303.523438 248.875 303.066406 242.824219 299.6875 235.519531 C 296.316406 228.21875 289.964844 219.648438 281.1875 210.480469 C 272.382812 201.304688 261.144531 191.535156 248.28125 181.902344 C 235.425781 172.269531 220.984375 162.789062 206.046875 154.179688 C 191.105469 145.574219 175.691406 137.839844 160.96875 131.566406 C 153.605469 128.433594 146.414062 125.65625 139.539062 123.304688 C 132.667969 120.957031 126.117188 119.027344 119.988281 117.539062 C 107.757812 114.578125 97.238281 113.398438 89.367188 114.191406 C 81.476562 114.972656 76.164062 117.660156 73.808594 122.035156 C 71.484375 126.429688 72.09375 132.496094 75.613281 139.78125 C 77.367188 143.421875 79.835938 147.363281 82.984375 151.527344 C 86.144531 155.699219 89.972656 160.09375 94.371094 164.613281 C 90.152344 160.136719 86.523438 155.8125 83.574219 151.730469 C 80.601562 147.644531 78.300781 143.792969 76.722656 140.257812 C 73.550781 133.175781 73.289062 127.367188 75.882812 123.234375 C 78.449219 119.082031 83.863281 116.59375 91.753906 115.984375 C 99.632812 115.359375 109.945312 116.585938 121.9375 119.570312 C 133.933594 122.558594 147.546875 127.269531 161.8125 133.386719 C 176.074219 139.5 190.972656 147.011719 205.371094 155.34375 C 219.773438 163.679688 233.691406 172.816406 246.054688 182.101562 C 258.433594 191.382812 269.222656 200.78125 277.6875 209.621094 C 286.171875 218.460938 292.320312 226.722656 295.597656 233.773438 C 298.902344 240.832031 299.324219 246.652344 296.960938 250.875 C 294.59375 255.089844 289.375 257.664062 281.65625 258.382812 C 273.945312 259.105469 263.761719 257.972656 251.875 255.097656 C 239.984375 252.21875 226.398438 247.574219 212.105469 241.511719 C 197.816406 235.453125 182.832031 227.953125 168.273438 219.601562 C 153.710938 211.253906 139.574219 202.039062 126.941406 192.636719 C 120.625 187.9375 114.6875 183.191406 109.234375 178.492188 C 103.761719 173.792969 98.78125 169.140625 94.371094 164.613281 "
                fill-opacity="1"
                fill-rule="nonzero"
                id="path4"/>
    </g>
    <path
            fill="#ff751f"
            d="M 94.25 173.1875 C 91.160156 171.402344 90.101562 167.453125 91.882812 164.363281 C 93.667969 161.273438 97.621094 160.214844 100.710938 162 C 103.800781 163.78125 104.859375 167.734375 103.074219 170.824219 C 101.289062 173.914062 97.339844 174.972656 94.25 173.1875 "
            fill-opacity="1"
            fill-rule="nonzero"
            id="path5"/>
    <g
            clip-path="url(#8b3fd0260b)"
            id="g6">
        <path
                fill="#ff751f"
                d="M 253.804688 118.273438 C 247.804688 119.699219 241.375 121.5625 234.617188 123.84375 C 227.855469 126.136719 220.769531 128.847656 213.503906 131.921875 C 198.972656 138.066406 183.71875 145.679688 168.886719 154.179688 C 154.058594 162.691406 139.6875 172.082031 126.859375 181.652344 C 114.011719 191.222656 102.800781 200.949219 93.96875 210.101562 C 89.566406 214.675781 85.742188 219.109375 82.601562 223.316406 C 79.457031 227.519531 77.015625 231.488281 75.296875 235.144531 C 71.847656 242.46875 71.347656 248.535156 73.800781 252.902344 C 76.257812 257.269531 81.722656 259.902344 89.738281 260.628906 C 97.746094 261.359375 108.347656 260.144531 120.675781 257.128906 C 133.023438 254.089844 147.105469 249.242188 161.878906 242.917969 C 176.644531 236.601562 192.078125 228.835938 207.003906 220.203125 C 221.925781 211.566406 236.332031 202.085938 249.125 192.46875 C 255.523438 187.660156 261.523438 182.820312 266.996094 178.042969 C 272.464844 173.265625 277.410156 168.558594 281.765625 163.996094 C 290.441406 154.882812 296.722656 146.363281 299.972656 139.148438 C 303.246094 131.925781 303.574219 125.984375 300.960938 121.753906 C 298.316406 117.542969 292.761719 115.039062 284.691406 114.445312 C 280.660156 114.144531 276.011719 114.3125 270.832031 114.953125 C 265.636719 115.605469 259.917969 116.726562 253.804688 118.273438 C 259.792969 116.855469 265.351562 115.878906 270.359375 115.363281 C 275.386719 114.835938 279.871094 114.765625 283.722656 115.167969 C 291.441406 115.964844 296.601562 118.636719 298.882812 122.953125 C 301.195312 127.25 300.648438 133.179688 297.226562 140.320312 C 293.832031 147.457031 287.609375 155.773438 279.03125 164.667969 C 270.441406 173.558594 259.558594 182.996094 247.128906 192.292969 C 234.703125 201.589844 220.75 210.730469 206.332031 219.035156 C 191.914062 227.339844 177.042969 234.824219 162.820312 240.890625 C 148.59375 246.972656 135.054688 251.609375 123.167969 254.527344 C 111.273438 257.453125 101.042969 258.644531 93.300781 257.960938 C 85.53125 257.292969 80.277344 254.746094 77.808594 250.589844 C 75.339844 246.433594 75.71875 240.621094 78.957031 233.582031 C 82.1875 226.542969 88.257812 218.289062 96.691406 209.433594 C 105.132812 200.574219 115.941406 191.128906 128.34375 181.785156 C 140.734375 172.4375 154.71875 163.210938 169.234375 154.78125 C 183.742188 146.34375 198.792969 138.707031 213.25 132.46875 C 220.480469 129.347656 227.558594 126.578125 234.355469 124.203125 C 241.15625 121.816406 247.679688 119.828125 253.804688 118.273438 "
                fill-opacity="1"
                fill-rule="nonzero"
                id="path6"/>
    </g>
    <path
            fill="#ff751f"
            d="M 246.4375 113.878906 C 249.527344 112.097656 253.480469 113.152344 255.261719 116.246094 C 257.046875 119.335938 255.988281 123.285156 252.898438 125.070312 C 249.808594 126.855469 245.859375 125.796875 244.074219 122.707031 C 242.289062 119.613281 243.347656 115.664062 246.4375 113.878906 "
            fill-opacity="1"
            fill-rule="nonzero"
            id="path7"/>
    <g
            clip-path="url(#00a36e873c)"
            id="g8">
        <path
                fill="#ff751f"
                d="M 214.222656 279.519531 C 215.984375 273.609375 217.585938 267.105469 218.988281 260.117188 C 220.386719 253.113281 221.578125 245.621094 222.550781 237.792969 C 224.492188 222.132812 225.527344 205.117188 225.585938 188.019531 C 225.625 170.925781 224.679688 153.78125 222.804688 137.886719 C 220.941406 121.980469 218.121094 107.40625 214.613281 95.179688 C 212.855469 89.078125 210.921875 83.554688 208.855469 78.726562 C 206.78125 73.90625 204.570312 69.808594 202.257812 66.484375 C 197.644531 59.835938 192.640625 56.375 187.628906 56.316406 C 182.617188 56.253906 177.601562 59.671875 172.96875 66.253906 C 168.332031 72.824219 164.082031 82.613281 160.53125 94.796875 C 156.992188 107.007812 154.148438 121.625 152.238281 137.582031 C 150.324219 153.53125 149.332031 170.777344 149.347656 188.019531 C 149.363281 205.261719 150.371094 222.476562 152.300781 238.363281 C 153.269531 246.308594 154.460938 253.925781 155.859375 261.054688 C 157.265625 268.179688 158.871094 274.820312 160.644531 280.867188 C 164.195312 292.941406 168.433594 302.640625 173.054688 309.0625 C 177.675781 315.503906 182.660156 318.761719 187.628906 318.617188 C 192.597656 318.429688 197.542969 314.867188 202.097656 308.179688 C 204.371094 304.839844 206.546875 300.730469 208.582031 295.921875 C 210.613281 291.097656 212.503906 285.585938 214.222656 279.519531 C 212.453125 285.410156 210.523438 290.714844 208.464844 295.304688 C 206.40625 299.925781 204.222656 303.84375 201.949219 306.980469 C 197.402344 313.265625 192.507812 316.398438 187.628906 316.214844 C 182.75 316.070312 177.890625 312.628906 173.414062 306.097656 C 168.933594 299.589844 164.839844 290.042969 161.429688 278.167969 C 158.019531 266.28125 155.289062 252.136719 153.457031 236.726562 C 151.617188 221.316406 150.679688 204.660156 150.695312 188.019531 C 150.710938 171.382812 151.664062 154.761719 153.523438 139.410156 C 155.371094 124.050781 158.121094 110.007812 161.539062 98.253906 C 164.953125 86.492188 169.035156 77.035156 173.5 70.671875 C 177.960938 64.277344 182.792969 61 187.628906 60.9375 C 192.464844 60.882812 197.304688 64.113281 201.785156 70.441406 C 206.265625 76.757812 210.375 86.140625 213.832031 97.871094 C 217.28125 109.609375 220.054688 123.699219 221.949219 139.109375 C 223.847656 154.511719 224.84375 171.238281 224.890625 188.019531 C 224.941406 204.804688 224.03125 221.660156 222.203125 237.296875 C 221.292969 245.121094 220.152344 252.636719 218.808594 259.707031 C 217.476562 266.792969 215.933594 273.433594 214.222656 279.519531 "
                fill-opacity="1"
                fill-rule="nonzero"
                id="path8"/>
    </g>
    <path
            fill="#ff751f"
            d="M 221.707031 275.332031 C 221.707031 278.902344 218.816406 281.792969 215.246094 281.792969 C 211.679688 281.792969 208.785156 278.902344 208.785156 275.332031 C 208.785156 271.765625 211.679688 268.875 215.246094 268.875 C 218.816406 268.875 221.707031 271.765625 221.707031 275.332031 "
            fill-opacity="1"
            fill-rule="nonzero"
            id="path9"/>
    <path
            fill="#ff751f"
            d="M 201.679688 187.46875 C 201.679688 195.316406 195.316406 201.679688 187.464844 201.679688 C 179.617188 201.679688 173.253906 195.316406 173.253906 187.46875 C 173.253906 179.617188 179.617188 173.253906 187.464844 173.253906 C 195.316406 173.253906 201.679688 179.617188 201.679688 187.46875 "
            fill-opacity="1"
            fill-rule="nonzero"
            id="path10"/>
    <g
            fill="#000000"
            fill-opacity="1"
            id="g13"/>
</svg>
