<svg xmlns="http://www.w3.org/2000/svg" width="500" zoomAndPan="magnify" viewBox="0 0 375 374.999991" height="500"
     preserveAspectRatio="xMidYMid meet" version="1.0">
    <defs>
        <clipPath id="81c9f88759">
            <path d="M 231 303 L 238 303 L 238 309.441406 L 231 309.441406 Z M 231 303 " clip-rule="nonzero"/>
        </clipPath>
    </defs>
    <path fill="#ff751f"
          d="M 167.925781 73.300781 C 167.480469 74.640625 166.136719 75.535156 164.570312 75.3125 C 163.230469 74.863281 162.332031 73.523438 162.558594 71.957031 C 163.003906 70.613281 164.347656 69.71875 165.914062 69.945312 C 167.253906 70.390625 168.148438 71.734375 167.925781 73.300781 Z M 167.925781 73.300781 "
          fill-opacity="1" fill-rule="nonzero"/>
    <path fill="#ff751f"
          d="M 142.648438 69.945312 C 142.199219 71.734375 140.410156 72.628906 138.84375 72.179688 C 137.054688 71.734375 136.160156 69.945312 136.609375 68.378906 C 137.054688 66.589844 138.84375 65.691406 140.410156 66.140625 C 142.199219 66.589844 143.09375 68.378906 142.648438 69.945312 Z M 142.648438 69.945312 "
          fill-opacity="1" fill-rule="nonzero"/>
    <path fill="#ff751f"
          d="M 118.265625 72.402344 C 117.816406 74.417969 115.804688 75.535156 114.015625 75.089844 C 112 74.640625 110.882812 72.628906 111.332031 70.839844 C 111.777344 68.824219 113.789062 67.707031 115.582031 68.152344 C 117.59375 68.601562 118.710938 70.613281 118.265625 72.402344 Z M 118.265625 72.402344 "
          fill-opacity="1" fill-rule="nonzero"/>
    <path fill="#ff751f"
          d="M 95.449219 80.234375 C 95 82.46875 92.761719 83.589844 90.527344 83.140625 C 88.289062 82.695312 87.171875 80.457031 87.617188 78.21875 C 88.066406 75.984375 90.300781 74.863281 92.539062 75.3125 C 94.550781 75.984375 95.894531 78.21875 95.449219 80.234375 Z M 95.449219 80.234375 "
          fill-opacity="1" fill-rule="nonzero"/>
    <path fill="#ff751f"
          d="M 74.867188 92.984375 C 74.195312 95.445312 71.957031 96.789062 69.5 96.117188 C 67.039062 95.445312 65.695312 93.207031 66.367188 90.746094 C 67.039062 88.285156 69.273438 86.945312 71.734375 87.617188 C 73.972656 88.0625 75.3125 90.523438 74.867188 92.984375 Z M 74.867188 92.984375 "
          fill-opacity="1" fill-rule="nonzero"/>
    <path fill="#ff751f"
          d="M 57.417969 109.984375 C 56.746094 112.671875 54.0625 114.234375 51.601562 113.566406 C 48.917969 112.894531 47.351562 110.210938 48.023438 107.75 C 48.695312 105.0625 51.378906 103.5 53.839844 104.167969 C 56.300781 104.839844 58.089844 107.300781 57.417969 109.984375 Z M 57.417969 109.984375 "
          fill-opacity="1" fill-rule="nonzero"/>
    <path fill="#ff751f"
          d="M 43.996094 130.789062 C 43.324219 133.699219 40.417969 135.265625 37.507812 134.59375 C 34.601562 133.921875 33.035156 131.011719 33.707031 128.105469 C 34.378906 125.199219 37.285156 123.632812 40.195312 124.300781 C 42.878906 124.972656 44.667969 127.882812 43.996094 130.789062 Z M 43.996094 130.789062 "
          fill-opacity="1" fill-rule="nonzero"/>
    <path fill="#ff751f"
          d="M 35.273438 154.949219 C 34.601562 158.082031 31.46875 159.871094 28.335938 159.199219 C 25.207031 158.527344 23.414062 155.398438 24.085938 152.265625 C 24.757812 149.132812 27.890625 147.34375 31.023438 148.015625 C 34.152344 148.6875 35.941406 151.816406 35.273438 154.949219 Z M 35.273438 154.949219 "
          fill-opacity="1" fill-rule="nonzero"/>
    <path fill="#ff751f"
          d="M 32.140625 180.675781 C 31.246094 184.03125 27.890625 186.042969 24.535156 185.148438 C 21.179688 184.253906 19.164062 180.898438 20.058594 177.542969 C 20.957031 174.1875 24.3125 172.175781 27.667969 173.070312 C 31.023438 173.964844 33.035156 177.320312 32.140625 180.675781 Z M 32.140625 180.675781 "
          fill-opacity="1" fill-rule="nonzero"/>
    <path fill="#ff751f"
          d="M 35.046875 205.503906 C 34.152344 209.085938 30.574219 211.097656 26.996094 210.203125 C 23.414062 209.308594 21.402344 205.730469 22.296875 202.148438 C 23.191406 198.570312 26.773438 196.558594 30.351562 197.453125 C 33.707031 198.570312 35.941406 202.148438 35.046875 205.503906 Z M 35.046875 205.503906 "
          fill-opacity="1" fill-rule="nonzero"/>
    <path fill="#ff751f"
          d="M 43.101562 228.996094 C 42.207031 232.796875 38.402344 235.035156 34.601562 234.140625 C 30.796875 233.246094 28.5625 229.441406 29.457031 225.640625 C 30.351562 221.835938 34.152344 219.597656 37.957031 220.492188 C 41.757812 221.386719 44.21875 225.191406 43.101562 228.996094 Z M 43.101562 228.996094 "
          fill-opacity="1" fill-rule="nonzero"/>
    <path fill="#ff751f"
          d="M 56.078125 250.246094 C 54.957031 254.273438 50.929688 256.734375 46.90625 255.613281 C 42.878906 254.496094 40.417969 250.46875 41.535156 246.441406 C 42.652344 242.417969 46.679688 239.957031 50.707031 241.074219 C 54.734375 241.96875 57.195312 246.21875 56.078125 250.246094 Z M 56.078125 250.246094 "
          fill-opacity="1" fill-rule="nonzero"/>
    <path fill="#ff751f"
          d="M 73.523438 268.140625 C 72.40625 272.390625 68.15625 274.851562 63.90625 273.957031 C 59.65625 272.839844 57.195312 268.589844 58.089844 264.339844 C 59.207031 260.089844 63.457031 257.628906 67.707031 258.523438 C 71.957031 259.640625 74.417969 263.890625 73.523438 268.140625 Z M 73.523438 268.140625 "
          fill-opacity="1" fill-rule="nonzero"/>
    <path fill="#ff751f"
          d="M 94.550781 282.011719 C 93.433594 286.484375 88.960938 289.167969 84.484375 288.050781 C 80.011719 286.933594 77.328125 282.457031 78.445312 277.984375 C 79.566406 273.511719 84.039062 270.824219 88.511719 271.945312 C 92.988281 273.0625 95.671875 277.539062 94.550781 282.011719 Z M 94.550781 282.011719 "
          fill-opacity="1" fill-rule="nonzero"/>
    <path fill="#ff751f"
          d="M 119.160156 291.40625 C 118.042969 296.105469 113.121094 299.011719 108.421875 297.671875 C 103.722656 296.550781 100.816406 291.628906 102.160156 286.933594 C 103.277344 282.234375 108.199219 279.328125 112.894531 280.667969 C 117.371094 281.789062 120.277344 286.707031 119.160156 291.40625 Z M 119.160156 291.40625 "
          fill-opacity="1" fill-rule="nonzero"/>
    <path fill="#ff751f"
          d="M 145.109375 294.761719 C 143.765625 299.683594 138.84375 302.589844 133.925781 301.472656 C 129.003906 300.128906 126.09375 295.210938 127.210938 290.289062 C 128.554688 285.367188 133.476562 282.457031 138.398438 283.578125 C 143.320312 284.917969 146.449219 289.839844 145.109375 294.761719 Z M 145.109375 294.761719 "
          fill-opacity="1" fill-rule="nonzero"/>
    <path fill="#ff751f"
          d="M 170.386719 292.523438 C 169.042969 297.671875 163.898438 300.800781 158.753906 299.460938 C 153.609375 298.117188 150.476562 292.972656 151.820312 287.828125 C 153.160156 282.683594 158.308594 279.550781 163.453125 280.894531 C 168.597656 282.234375 171.730469 287.378906 170.386719 292.523438 Z M 170.386719 292.523438 "
          fill-opacity="1" fill-rule="nonzero"/>
    <path fill="#ff751f"
          d="M 194.097656 284.917969 C 192.757812 290.289062 187.164062 293.644531 181.796875 292.300781 C 176.425781 290.960938 173.070312 285.367188 174.414062 279.996094 C 175.753906 274.628906 181.347656 271.273438 186.71875 272.617188 C 192.308594 273.957031 195.441406 279.550781 194.097656 284.917969 Z M 194.097656 284.917969 "
          fill-opacity="1" fill-rule="nonzero"/>
    <path fill="#ff751f"
          d="M 215.574219 272.617188 C 214.230469 278.207031 208.414062 281.5625 202.824219 280.222656 C 197.230469 278.878906 193.875 273.0625 195.21875 267.46875 C 196.558594 261.878906 202.375 258.523438 207.96875 259.863281 C 213.5625 261.207031 216.917969 266.800781 215.574219 272.617188 Z M 215.574219 272.617188 "
          fill-opacity="1" fill-rule="nonzero"/>
    <path fill="#ff751f"
          d="M 233.695312 255.839844 C 232.128906 261.65625 226.3125 265.234375 220.496094 263.667969 C 214.679688 262.101562 211.101562 256.285156 212.667969 250.46875 C 214.230469 244.652344 220.046875 241.074219 225.863281 242.640625 C 231.679688 243.980469 235.261719 249.796875 233.695312 255.839844 Z M 233.695312 255.839844 "
          fill-opacity="1" fill-rule="nonzero"/>
    <path fill="#ff751f"
          d="M 248.011719 235.035156 C 246.445312 241.074219 240.179688 244.875 234.140625 243.3125 C 228.101562 241.746094 224.296875 235.480469 225.863281 229.441406 C 227.429688 223.402344 233.695312 219.597656 239.734375 221.164062 C 245.996094 222.730469 249.578125 228.996094 248.011719 235.035156 Z M 248.011719 235.035156 "
          fill-opacity="1" fill-rule="nonzero"/>
    <path fill="#ff751f"
          d="M 257.628906 211.097656 C 256.0625 217.363281 249.578125 221.164062 243.3125 219.597656 C 237.050781 218.03125 233.246094 211.546875 234.8125 205.28125 C 236.378906 199.019531 242.867188 195.214844 249.128906 196.78125 C 255.394531 198.347656 259.195312 204.835938 257.628906 211.097656 Z M 257.628906 211.097656 "
          fill-opacity="1" fill-rule="nonzero"/>
    <path fill="#ff751f"
          d="M 152.714844 92.089844 C 152.492188 93.207031 151.371094 93.878906 150.253906 93.433594 C 149.136719 93.207031 148.464844 92.089844 148.910156 90.972656 C 149.136719 89.851562 150.253906 89.183594 151.371094 89.628906 C 152.265625 89.851562 152.9375 90.972656 152.714844 92.089844 Z M 152.714844 92.089844 "
          fill-opacity="1" fill-rule="nonzero"/>
    <path fill="#ff751f"
          d="M 134.59375 89.628906 C 134.371094 90.746094 133.027344 91.640625 131.910156 91.195312 C 130.792969 90.972656 129.898438 89.628906 130.34375 88.511719 C 130.566406 87.390625 131.910156 86.496094 133.027344 86.945312 C 134.148438 87.167969 134.820312 88.511719 134.59375 89.628906 Z M 134.59375 89.628906 "
          fill-opacity="1" fill-rule="nonzero"/>
    <path fill="#ff751f"
          d="M 116.921875 91.417969 C 116.476562 92.761719 115.132812 93.65625 113.789062 93.207031 C 112.449219 92.761719 111.554688 91.417969 112 90.078125 C 112.449219 88.734375 113.789062 87.839844 115.132812 88.285156 C 116.476562 88.734375 117.371094 90.078125 116.921875 91.417969 Z M 116.921875 91.417969 "
          fill-opacity="1" fill-rule="nonzero"/>
    <path fill="#ff751f"
          d="M 100.367188 97.234375 C 99.921875 98.800781 98.355469 99.695312 96.789062 99.25 C 95.222656 98.800781 94.328125 97.234375 94.777344 95.667969 C 95.222656 94.101562 96.789062 93.207031 98.355469 93.65625 C 99.921875 94.101562 100.816406 95.667969 100.367188 97.234375 Z M 100.367188 97.234375 "
          fill-opacity="1" fill-rule="nonzero"/>
    <path fill="#ff751f"
          d="M 85.605469 106.183594 C 85.15625 107.972656 83.367188 108.867188 81.800781 108.417969 C 80.011719 107.972656 79.117188 106.183594 79.566406 104.617188 C 80.011719 102.828125 81.800781 101.933594 83.367188 102.378906 C 84.933594 102.828125 85.828125 104.617188 85.605469 106.183594 Z M 85.605469 106.183594 "
          fill-opacity="1" fill-rule="nonzero"/>
    <path fill="#ff751f"
          d="M 72.855469 118.488281 C 72.40625 120.277344 70.394531 121.617188 68.601562 120.945312 C 66.8125 120.5 65.472656 118.488281 66.144531 116.695312 C 66.589844 114.90625 68.601562 113.566406 70.394531 114.234375 C 72.183594 114.683594 73.300781 116.695312 72.855469 118.488281 Z M 72.855469 118.488281 "
          fill-opacity="1" fill-rule="nonzero"/>
    <path fill="#ff751f"
          d="M 63.234375 133.699219 C 62.789062 135.710938 60.550781 137.054688 58.535156 136.382812 C 56.523438 135.933594 55.179688 133.699219 55.851562 131.683594 C 56.300781 129.671875 58.535156 128.328125 60.550781 129 C 62.339844 129.449219 63.683594 131.460938 63.234375 133.699219 Z M 63.234375 133.699219 "
          fill-opacity="1" fill-rule="nonzero"/>
    <path fill="#ff751f"
          d="M 56.972656 151.148438 C 56.300781 153.382812 54.0625 154.726562 51.824219 154.054688 C 49.589844 153.382812 48.246094 151.148438 48.917969 148.910156 C 49.589844 146.671875 51.824219 145.332031 54.0625 146 C 56.078125 146.671875 57.417969 148.910156 56.972656 151.148438 Z M 56.972656 151.148438 "
          fill-opacity="1" fill-rule="nonzero"/>
    <path fill="#ff751f"
          d="M 54.734375 169.714844 C 54.0625 172.175781 51.601562 173.515625 49.363281 172.84375 C 46.90625 172.175781 45.5625 169.714844 46.234375 167.476562 C 46.90625 165.015625 49.363281 163.671875 51.601562 164.34375 C 53.839844 164.792969 55.40625 167.253906 54.734375 169.714844 Z M 54.734375 169.714844 "
          fill-opacity="1" fill-rule="nonzero"/>
    <path fill="#ff751f"
          d="M 56.746094 187.609375 C 56.078125 190.070312 53.390625 191.636719 50.929688 190.964844 C 48.46875 190.292969 46.90625 187.609375 47.574219 185.148438 C 48.246094 182.6875 50.929688 181.121094 53.390625 181.792969 C 55.851562 182.464844 57.417969 185.148438 56.746094 187.609375 Z M 56.746094 187.609375 "
          fill-opacity="1" fill-rule="nonzero"/>
    <path fill="#ff751f"
          d="M 62.5625 204.609375 C 61.890625 207.296875 59.207031 209.085938 56.300781 208.414062 C 53.617188 207.742188 51.824219 205.058594 52.496094 202.148438 C 53.167969 199.464844 55.851562 197.675781 58.761719 198.347656 C 61.667969 199.019531 63.234375 201.925781 62.5625 204.609375 Z M 62.5625 204.609375 "
          fill-opacity="1" fill-rule="nonzero"/>
    <path fill="#ff751f"
          d="M 71.957031 219.824219 C 71.289062 222.730469 68.378906 224.519531 65.472656 223.847656 C 62.5625 223.179688 60.773438 220.269531 61.445312 217.363281 C 62.117188 214.453125 65.023438 212.664062 67.933594 213.335938 C 71.0625 214.007812 72.628906 216.914062 71.957031 219.824219 Z M 71.957031 219.824219 "
          fill-opacity="1" fill-rule="nonzero"/>
    <path fill="#ff751f"
          d="M 84.484375 232.796875 C 83.816406 235.929688 80.683594 237.71875 77.550781 237.046875 C 74.417969 236.375 72.628906 233.246094 73.300781 230.113281 C 73.972656 226.980469 77.105469 225.191406 80.234375 225.863281 C 83.367188 226.757812 85.382812 229.890625 84.484375 232.796875 Z M 84.484375 232.796875 "
          fill-opacity="1" fill-rule="nonzero"/>
    <path fill="#ff751f"
          d="M 99.699219 242.863281 C 98.804688 245.996094 95.671875 248.007812 92.316406 247.335938 C 89.183594 246.441406 87.171875 243.3125 87.839844 239.957031 C 88.738281 236.824219 91.867188 234.808594 95.222656 235.480469 C 98.578125 236.375 100.59375 239.730469 99.699219 242.863281 Z M 99.699219 242.863281 "
          fill-opacity="1" fill-rule="nonzero"/>
    <path fill="#ff751f"
          d="M 117.59375 249.574219 C 116.699219 252.929688 113.34375 254.945312 109.988281 254.273438 C 106.632812 253.378906 104.617188 250.023438 105.289062 246.667969 C 106.183594 243.3125 109.539062 241.296875 112.894531 241.96875 C 116.25 242.640625 118.265625 246.21875 117.59375 249.574219 Z M 117.59375 249.574219 "
          fill-opacity="1" fill-rule="nonzero"/>
    <path fill="#ff751f"
          d="M 136.382812 252.257812 C 135.488281 255.839844 131.910156 258.074219 128.332031 257.179688 C 124.753906 256.285156 122.515625 252.707031 123.410156 249.128906 C 124.304688 245.546875 127.882812 243.3125 131.464844 244.207031 C 135.042969 245.101562 137.28125 248.679688 136.382812 252.257812 Z M 136.382812 252.257812 "
          fill-opacity="1" fill-rule="nonzero"/>
    <path fill="#ff751f"
          d="M 154.503906 250.46875 C 153.609375 254.273438 149.804688 256.507812 146.003906 255.613281 C 142.199219 254.71875 139.964844 250.917969 140.859375 247.113281 C 141.753906 243.3125 145.554688 241.074219 149.359375 241.96875 C 153.160156 243.085938 155.398438 246.890625 154.503906 250.46875 Z M 154.503906 250.46875 "
          fill-opacity="1" fill-rule="nonzero"/>
    <path fill="#ff751f"
          d="M 171.730469 245.101562 C 170.835938 248.902344 166.808594 251.363281 162.78125 250.46875 C 158.976562 249.574219 156.515625 245.546875 157.414062 241.519531 C 158.308594 237.71875 162.332031 235.257812 166.359375 236.152344 C 170.386719 237.269531 172.625 241.074219 171.730469 245.101562 Z M 171.730469 245.101562 "
          fill-opacity="1" fill-rule="nonzero"/>
    <path fill="#ff751f"
          d="M 187.164062 235.929688 C 186.046875 239.957031 182.019531 242.417969 177.992188 241.519531 C 173.964844 240.402344 171.503906 236.375 172.398438 232.351562 C 173.519531 228.324219 177.546875 225.863281 181.570312 226.757812 C 185.820312 227.875 188.28125 231.902344 187.164062 235.929688 Z M 187.164062 235.929688 "
          fill-opacity="1" fill-rule="nonzero"/>
    <path fill="#ff751f"
          d="M 200.363281 223.847656 C 199.246094 228.097656 194.992188 230.558594 190.742188 229.664062 C 186.492188 228.546875 184.03125 224.296875 184.925781 220.046875 C 186.046875 215.796875 190.296875 213.335938 194.546875 214.230469 C 198.796875 215.347656 201.480469 219.597656 200.363281 223.847656 Z M 200.363281 223.847656 "
          fill-opacity="1" fill-rule="nonzero"/>
    <path fill="#ff751f"
          d="M 210.652344 209.085938 C 209.535156 213.558594 205.058594 216.242188 200.585938 215.125 C 196.113281 214.007812 193.429688 209.53125 194.546875 205.058594 C 195.664062 200.585938 200.140625 197.898438 204.613281 199.019531 C 209.085938 200.136719 211.769531 204.609375 210.652344 209.085938 Z M 210.652344 209.085938 "
          fill-opacity="1" fill-rule="nonzero"/>
    <path fill="#ff751f"
          d="M 217.585938 191.636719 C 216.46875 196.109375 211.769531 199.019531 207.296875 197.898438 C 202.824219 196.78125 199.914062 192.082031 201.035156 187.609375 C 202.152344 183.136719 206.851562 180.226562 211.324219 181.347656 C 216.023438 182.464844 218.707031 187.164062 217.585938 191.636719 Z M 217.585938 191.636719 "
          fill-opacity="1" fill-rule="nonzero"/>
    <g clip-path="url(#81c9f88759)">
        <path fill="#ff751f"
              d="M 231.679688 306.394531 C 231.679688 304.828125 233.023438 303.710938 234.589844 303.710938 C 236.15625 303.710938 237.273438 305.050781 237.273438 306.617188 C 237.273438 308.183594 235.929688 309.300781 234.363281 309.300781 C 232.800781 309.078125 231.679688 307.738281 231.679688 306.394531 Z M 231.679688 306.394531 "
              fill-opacity="1" fill-rule="nonzero"/>
    </g>
    <path fill="#ff751f"
          d="M 256.957031 304.15625 C 256.957031 302.367188 258.523438 301.027344 260.3125 301.027344 C 262.105469 301.027344 263.445312 302.589844 263.445312 304.382812 C 263.445312 306.171875 261.878906 307.511719 260.089844 307.511719 C 258.300781 307.511719 256.957031 305.945312 256.957031 304.15625 Z M 256.957031 304.15625 "
          fill-opacity="1" fill-rule="nonzero"/>
    <path fill="#ff751f"
          d="M 280.222656 296.550781 C 280.222656 294.539062 282.011719 292.972656 284.027344 293.195312 C 286.039062 293.195312 287.605469 294.984375 287.382812 297 C 287.382812 299.011719 285.59375 300.578125 283.578125 300.355469 C 281.789062 300.355469 280.222656 298.566406 280.222656 296.550781 Z M 280.222656 296.550781 "
          fill-opacity="1" fill-rule="nonzero"/>
    <path fill="#ff751f"
          d="M 301.027344 284.25 C 301.027344 282.011719 303.042969 280.222656 305.277344 280.445312 C 307.515625 280.667969 309.304688 282.457031 309.082031 284.695312 C 309.082031 286.933594 307.066406 288.722656 304.832031 288.5 C 302.816406 288.273438 301.027344 286.484375 301.027344 284.25 Z M 301.027344 284.25 "
          fill-opacity="1" fill-rule="nonzero"/>
    <path fill="#ff751f"
          d="M 318.476562 267.46875 C 318.476562 265.011719 320.714844 262.996094 323.175781 263.21875 C 325.636719 263.21875 327.648438 265.457031 327.425781 267.917969 C 327.425781 270.378906 325.1875 272.390625 322.726562 272.167969 C 320.265625 271.945312 318.476562 269.929688 318.476562 267.46875 Z M 318.476562 267.46875 "
          fill-opacity="1" fill-rule="nonzero"/>
    <path fill="#ff751f"
          d="M 331.898438 247.113281 C 331.898438 244.429688 334.359375 242.417969 337.042969 242.417969 C 339.726562 242.417969 341.742188 244.652344 341.742188 247.5625 C 341.742188 250.246094 339.503906 252.257812 336.597656 252.257812 C 333.910156 252.035156 331.898438 249.796875 331.898438 247.113281 Z M 331.898438 247.113281 "
          fill-opacity="1" fill-rule="nonzero"/>
    <path fill="#ff751f"
          d="M 340.621094 223.847656 C 340.621094 220.941406 343.082031 218.703125 346.214844 218.703125 C 349.125 218.703125 351.359375 221.164062 351.359375 224.296875 C 351.359375 227.203125 348.898438 229.441406 345.769531 229.441406 C 342.859375 229.441406 340.621094 226.980469 340.621094 223.847656 Z M 340.621094 223.847656 "
          fill-opacity="1" fill-rule="nonzero"/>
    <path fill="#ff751f"
          d="M 344.203125 198.347656 C 344.203125 195.214844 346.886719 192.753906 350.242188 192.753906 C 353.375 192.753906 355.835938 195.4375 355.835938 198.792969 C 355.835938 201.925781 353.148438 204.386719 349.792969 204.386719 C 346.4375 204.164062 343.976562 201.703125 344.203125 198.347656 Z M 344.203125 198.347656 "
          fill-opacity="1" fill-rule="nonzero"/>
    <path fill="#ff751f"
          d="M 341.515625 172.84375 C 341.742188 169.488281 344.425781 166.804688 348.003906 166.804688 C 351.359375 167.03125 354.042969 169.714844 354.042969 173.292969 C 353.820312 176.648438 351.136719 179.332031 347.558594 179.332031 C 344.203125 179.109375 341.515625 176.199219 341.515625 172.84375 Z M 341.515625 172.84375 "
          fill-opacity="1" fill-rule="nonzero"/>
    <path fill="#ff751f"
          d="M 333.6875 148.910156 C 333.910156 145.332031 336.820312 142.421875 340.621094 142.421875 C 344.203125 142.644531 347.109375 145.554688 347.109375 149.355469 C 346.886719 152.9375 343.976562 155.84375 340.175781 155.84375 C 336.371094 155.621094 333.464844 152.488281 333.6875 148.910156 Z M 333.6875 148.910156 "
          fill-opacity="1" fill-rule="nonzero"/>
    <path fill="#ff751f"
          d="M 320.714844 127.65625 C 320.9375 123.855469 324.070312 120.722656 328.09375 120.945312 C 331.898438 121.171875 335.03125 124.300781 334.804688 128.328125 C 334.582031 132.132812 331.449219 135.265625 327.425781 135.039062 C 323.621094 134.816406 320.488281 131.683594 320.714844 127.65625 Z M 320.714844 127.65625 "
          fill-opacity="1" fill-rule="nonzero"/>
    <path fill="#ff751f"
          d="M 303.488281 109.761719 C 303.710938 105.734375 307.066406 102.378906 311.316406 102.605469 C 315.566406 102.828125 318.699219 106.183594 318.476562 110.433594 C 318.253906 114.460938 314.898438 117.816406 310.648438 117.589844 C 306.621094 117.367188 303.488281 114.011719 303.488281 109.761719 Z M 303.488281 109.761719 "
          fill-opacity="1" fill-rule="nonzero"/>
    <path fill="#ff751f"
          d="M 282.90625 95.894531 C 283.132812 91.417969 286.710938 88.0625 291.183594 88.285156 C 295.660156 88.511719 299.015625 92.089844 298.789062 96.5625 C 298.566406 101.039062 294.988281 104.394531 290.515625 104.167969 C 286.039062 103.945312 282.683594 100.367188 282.90625 95.894531 Z M 282.90625 95.894531 "
          fill-opacity="1" fill-rule="nonzero"/>
    <path fill="#ff751f"
          d="M 259.195312 86.722656 C 259.417969 82.023438 263.222656 78.445312 267.921875 78.667969 C 272.617188 78.890625 276.195312 82.695312 275.972656 87.390625 C 275.75 92.089844 271.945312 95.667969 267.25 95.445312 C 262.773438 95.222656 258.972656 91.417969 259.195312 86.722656 Z M 259.195312 86.722656 "
          fill-opacity="1" fill-rule="nonzero"/>
    <path fill="#ff751f"
          d="M 233.246094 82.917969 C 233.46875 77.996094 237.496094 74.195312 242.417969 74.417969 C 247.339844 74.640625 251.144531 78.667969 250.917969 83.589844 C 250.695312 88.511719 246.667969 92.3125 241.746094 92.089844 C 236.824219 91.867188 233.023438 87.839844 233.246094 82.917969 Z M 233.246094 82.917969 "
          fill-opacity="1" fill-rule="nonzero"/>
    <path fill="#ff751f"
          d="M 207.074219 84.929688 C 207.296875 79.785156 211.546875 75.757812 216.691406 75.984375 C 221.839844 76.207031 225.863281 80.457031 225.640625 85.601562 C 225.417969 90.746094 221.167969 94.773438 216.023438 94.550781 C 210.875 94.328125 207.074219 90.078125 207.074219 84.929688 Z M 207.074219 84.929688 "
          fill-opacity="1" fill-rule="nonzero"/>
    <path fill="#ff751f"
          d="M 182.914062 92.539062 C 183.136719 87.167969 187.613281 83.140625 192.980469 83.140625 C 198.347656 83.367188 202.375 87.839844 202.375 93.207031 C 202.152344 98.578125 197.679688 102.605469 192.308594 102.605469 C 186.941406 102.378906 182.691406 97.90625 182.914062 92.539062 Z M 182.914062 92.539062 "
          fill-opacity="1" fill-rule="nonzero"/>
    <path fill="#ff751f"
          d="M 161.4375 105.0625 C 161.664062 99.472656 166.359375 95.222656 171.953125 95.222656 C 177.546875 95.445312 181.796875 100.144531 181.796875 105.734375 C 181.570312 111.328125 176.875 115.578125 171.28125 115.578125 C 165.464844 115.132812 161.214844 110.65625 161.4375 105.0625 Z M 161.4375 105.0625 "
          fill-opacity="1" fill-rule="nonzero"/>
    <path fill="#ff751f"
          d="M 143.09375 121.617188 C 143.320312 115.800781 148.242188 111.328125 154.058594 111.550781 C 159.871094 111.773438 164.347656 116.695312 164.125 122.511719 C 163.898438 128.328125 158.976562 132.804688 153.160156 132.578125 C 147.347656 132.355469 142.871094 127.433594 143.09375 121.617188 Z M 143.09375 121.617188 "
          fill-opacity="1" fill-rule="nonzero"/>
    <path fill="#ff751f"
          d="M 128.777344 141.976562 C 129.003906 135.933594 134.148438 131.238281 140.1875 131.460938 C 146.226562 131.683594 150.925781 136.828125 150.703125 142.871094 C 150.476562 148.910156 145.332031 153.605469 139.292969 153.382812 C 133.253906 153.160156 128.554688 148.015625 128.777344 141.976562 Z M 128.777344 141.976562 "
          fill-opacity="1" fill-rule="nonzero"/>
    <path fill="#ff751f"
          d="M 119.160156 165.238281 C 119.382812 158.976562 124.753906 154.054688 131.015625 154.277344 C 137.28125 154.503906 142.199219 159.871094 141.976562 166.132812 C 141.753906 172.398438 136.382812 177.320312 130.121094 177.097656 C 123.855469 176.648438 118.9375 171.503906 119.160156 165.238281 Z M 119.160156 165.238281 "
          fill-opacity="1" fill-rule="nonzero"/>
    <path fill="#ff751f"
          d="M 114.910156 190.519531 C 115.132812 184.03125 120.5 178.886719 127.210938 179.109375 C 133.699219 179.332031 138.84375 184.703125 138.621094 191.414062 C 138.398438 197.898438 133.027344 203.046875 126.316406 202.820312 C 119.832031 202.597656 114.6875 197.230469 114.910156 190.519531 Z M 114.910156 190.519531 "
          fill-opacity="1" fill-rule="nonzero"/>
    <path fill="#ff751f"
          d="M 242.640625 284.695312 C 242.640625 283.578125 243.535156 282.683594 244.65625 282.90625 C 245.773438 282.90625 246.667969 283.800781 246.445312 284.917969 C 246.445312 286.039062 245.550781 286.933594 244.433594 286.707031 C 243.3125 286.707031 242.417969 285.8125 242.640625 284.695312 Z M 242.640625 284.695312 "
          fill-opacity="1" fill-rule="nonzero"/>
    <path fill="#ff751f"
          d="M 260.761719 283.351562 C 260.761719 282.011719 261.878906 281.117188 263.222656 281.117188 C 264.566406 281.117188 265.460938 282.234375 265.460938 283.578125 C 265.460938 284.917969 264.339844 285.8125 263.222656 285.8125 C 261.65625 285.589844 260.761719 284.472656 260.761719 283.351562 Z M 260.761719 283.351562 "
          fill-opacity="1" fill-rule="nonzero"/>
    <path fill="#ff751f"
          d="M 277.761719 277.761719 C 277.761719 276.417969 279.105469 275.300781 280.449219 275.300781 C 281.789062 275.300781 282.90625 276.640625 282.90625 277.984375 C 282.90625 279.328125 281.566406 280.445312 280.222656 280.445312 C 278.65625 280.445312 277.539062 279.328125 277.761719 277.761719 Z M 277.761719 277.761719 "
          fill-opacity="1" fill-rule="nonzero"/>
    <path fill="#ff751f"
          d="M 292.75 268.8125 C 292.75 267.246094 294.09375 265.90625 295.660156 265.90625 C 297.226562 265.90625 298.566406 267.246094 298.566406 268.8125 C 298.566406 270.378906 297.226562 271.722656 295.660156 271.722656 C 293.871094 271.722656 292.527344 270.378906 292.75 268.8125 Z M 292.75 268.8125 "
          fill-opacity="1" fill-rule="nonzero"/>
    <path fill="#ff751f"
          d="M 305.277344 256.734375 C 305.277344 254.945312 306.84375 253.601562 308.632812 253.601562 C 310.421875 253.601562 311.765625 255.167969 311.765625 256.957031 C 311.765625 258.746094 310.199219 260.089844 308.410156 260.089844 C 306.621094 259.863281 305.277344 258.523438 305.277344 256.734375 Z M 305.277344 256.734375 "
          fill-opacity="1" fill-rule="nonzero"/>
    <path fill="#ff751f"
          d="M 314.898438 241.96875 C 314.898438 239.957031 316.6875 238.390625 318.476562 238.613281 C 320.488281 238.613281 322.054688 240.402344 321.832031 242.191406 C 321.832031 244.207031 320.042969 245.773438 318.253906 245.546875 C 316.464844 245.546875 314.898438 243.980469 314.898438 241.96875 Z M 314.898438 241.96875 "
          fill-opacity="1" fill-rule="nonzero"/>
    <path fill="#ff751f"
          d="M 321.382812 225.191406 C 321.382812 223.179688 323.175781 221.386719 325.410156 221.386719 C 327.425781 221.386719 329.214844 223.179688 329.214844 225.414062 C 329.214844 227.429688 327.425781 229.21875 325.1875 229.21875 C 322.949219 229.21875 321.160156 227.429688 321.382812 225.191406 Z M 321.382812 225.191406 "
          fill-opacity="1" fill-rule="nonzero"/>
    <path fill="#ff751f"
          d="M 323.84375 206.847656 C 323.84375 204.609375 325.859375 202.820312 328.09375 202.820312 C 330.332031 202.820312 332.121094 204.835938 332.121094 207.070312 C 332.121094 209.308594 330.109375 211.097656 327.871094 211.097656 C 325.410156 211.097656 323.621094 209.085938 323.84375 206.847656 Z M 323.84375 206.847656 "
          fill-opacity="1" fill-rule="nonzero"/>
    <path fill="#ff751f"
          d="M 322.054688 188.28125 C 322.054688 185.820312 324.292969 183.808594 326.753906 184.03125 C 329.214844 184.03125 331.226562 186.265625 331.003906 188.726562 C 331.003906 191.1875 328.765625 193.203125 326.304688 192.976562 C 323.84375 192.753906 321.832031 190.742188 322.054688 188.28125 Z M 322.054688 188.28125 "
          fill-opacity="1" fill-rule="nonzero"/>
    <path fill="#ff751f"
          d="M 316.238281 171.054688 C 316.238281 168.371094 318.476562 166.359375 321.160156 166.359375 C 323.84375 166.359375 325.859375 168.59375 325.859375 171.28125 C 325.859375 173.964844 323.621094 175.976562 320.9375 175.976562 C 318.027344 175.976562 316.015625 173.742188 316.238281 171.054688 Z M 316.238281 171.054688 "
          fill-opacity="1" fill-rule="nonzero"/>
    <path fill="#ff751f"
          d="M 306.84375 155.84375 C 306.84375 152.9375 309.304688 150.921875 312.210938 150.921875 C 315.121094 150.921875 317.132812 153.382812 317.132812 156.292969 C 317.132812 159.199219 314.671875 161.214844 311.765625 161.214844 C 308.855469 160.988281 306.84375 158.527344 306.84375 155.84375 Z M 306.84375 155.84375 "
          fill-opacity="1" fill-rule="nonzero"/>
    <path fill="#ff751f"
          d="M 294.539062 142.871094 C 294.539062 139.960938 297.226562 137.5 300.132812 137.722656 C 303.042969 137.722656 305.5 140.410156 305.277344 143.316406 C 305.277344 146.226562 302.59375 148.6875 299.6875 148.460938 C 296.777344 148.238281 294.316406 145.777344 294.539062 142.871094 Z M 294.539062 142.871094 "
          fill-opacity="1" fill-rule="nonzero"/>
    <path fill="#ff751f"
          d="M 279.550781 132.804688 C 279.550781 129.671875 282.238281 127.210938 285.367188 127.210938 C 288.5 127.210938 290.960938 129.894531 290.960938 133.027344 C 290.960938 136.160156 288.277344 138.621094 285.144531 138.621094 C 281.789062 138.621094 279.328125 135.933594 279.550781 132.804688 Z M 279.550781 132.804688 "
          fill-opacity="1" fill-rule="nonzero"/>
    <path fill="#ff751f"
          d="M 262.328125 126.09375 C 262.550781 122.738281 265.234375 120.050781 268.589844 120.277344 C 271.945312 120.5 274.632812 123.183594 274.40625 126.539062 C 274.40625 129.894531 271.5 132.578125 268.144531 132.355469 C 265.011719 132.132812 262.328125 129.449219 262.328125 126.09375 Z M 262.328125 126.09375 "
          fill-opacity="1" fill-rule="nonzero"/>
    <path fill="#ff751f"
          d="M 243.761719 123.40625 C 243.984375 119.828125 246.890625 117.144531 250.246094 117.367188 C 253.828125 117.589844 256.511719 120.5 256.289062 123.855469 C 256.0625 127.433594 253.15625 130.117188 249.800781 129.894531 C 246.222656 129.671875 243.535156 126.761719 243.761719 123.40625 Z M 243.761719 123.40625 "
          fill-opacity="1" fill-rule="nonzero"/>
    <path fill="#ff751f"
          d="M 224.746094 124.75 C 224.96875 121.171875 227.878906 118.261719 231.679688 118.261719 C 235.261719 118.488281 238.167969 121.394531 238.167969 125.199219 C 237.945312 128.777344 235.035156 131.683594 231.234375 131.683594 C 227.652344 131.460938 224.746094 128.554688 224.746094 124.75 Z M 224.746094 124.75 "
          fill-opacity="1" fill-rule="nonzero"/>
    <path fill="#ff751f"
          d="M 207.296875 130.34375 C 207.519531 126.539062 210.652344 123.40625 214.457031 123.632812 C 218.257812 123.855469 221.390625 126.988281 221.167969 130.789062 C 220.941406 134.59375 217.8125 137.722656 214.007812 137.5 C 210.207031 137.277344 207.074219 134.144531 207.296875 130.34375 Z M 207.296875 130.34375 "
          fill-opacity="1" fill-rule="nonzero"/>
    <path fill="#ff751f"
          d="M 191.636719 139.289062 C 191.863281 135.265625 195.21875 132.132812 199.246094 132.355469 C 203.269531 132.578125 206.402344 135.933594 206.179688 139.960938 C 205.957031 143.988281 202.601562 147.121094 198.574219 146.894531 C 194.769531 146.671875 191.636719 143.316406 191.636719 139.289062 Z M 191.636719 139.289062 "
          fill-opacity="1" fill-rule="nonzero"/>
    <path fill="#ff751f"
          d="M 178.441406 151.371094 C 178.664062 147.121094 182.019531 143.988281 186.269531 143.988281 C 190.519531 144.210938 193.652344 147.566406 193.652344 151.816406 C 193.429688 156.066406 190.074219 159.199219 185.820312 159.199219 C 181.570312 158.976562 178.214844 155.621094 178.441406 151.371094 Z M 178.441406 151.371094 "
          fill-opacity="1" fill-rule="nonzero"/>
    <path fill="#ff751f"
          d="M 168.148438 165.910156 C 168.375 161.4375 171.953125 158.082031 176.425781 158.304688 C 180.902344 158.527344 184.257812 162.109375 184.03125 166.582031 C 183.808594 171.054688 180.230469 174.410156 175.753906 174.1875 C 171.28125 173.964844 167.925781 170.386719 168.148438 165.910156 Z M 168.148438 165.910156 "
          fill-opacity="1" fill-rule="nonzero"/>
    <path fill="#ff751f"
          d="M 161.214844 182.6875 C 161.4375 178.214844 165.242188 174.636719 169.714844 174.636719 C 174.191406 174.859375 177.769531 178.660156 177.769531 183.136719 C 177.546875 187.609375 173.742188 191.1875 169.269531 191.1875 C 164.570312 191.1875 160.992188 187.386719 161.214844 182.6875 Z M 161.214844 182.6875 "
          fill-opacity="1" fill-rule="nonzero"/>
    <path fill="#ff751f"
          d="M 158.082031 201.253906 C 158.308594 196.558594 162.109375 192.753906 166.808594 192.976562 C 171.503906 193.203125 175.308594 197.003906 175.085938 201.703125 C 174.859375 206.402344 171.058594 210.203125 166.359375 209.980469 C 161.664062 209.757812 157.859375 205.953125 158.082031 201.253906 Z M 158.082031 201.253906 "
          fill-opacity="1" fill-rule="nonzero"/>
</svg>