<svg xmlns="http://www.w3.org/2000/svg" xmlns:xlink="http://www.w3.org/1999/xlink" width="500" zoomAndPan="magnify" viewBox="0 0 375 374.999991" height="500" preserveAspectRatio="xMidYMid meet" version="1.0"><defs><clipPath id="94095c5cb4"><path d="M 58 45.398438 L 315 45.398438 L 315 329.648438 L 58 329.648438 Z M 58 45.398438 " clip-rule="nonzero"/></clipPath></defs><g clip-path="url(#94095c5cb4)"><path fill="#f8761f" d="M 305.234375 180.40625 C 302.066406 175 298.257812 170.085938 293.8125 165.671875 C 289.367188 161.253906 284.433594 157.480469 279.003906 154.347656 C 270.71875 149.53125 262.148438 146.46875 252.472656 145.148438 L 252.472656 110.492188 C 253.640625 110.011719 254.765625 109.441406 255.847656 108.792969 C 256.929688 108.140625 257.957031 107.414062 258.929688 106.609375 C 259.902344 105.804688 260.808594 104.929688 261.652344 103.992188 C 262.496094 103.050781 263.265625 102.054688 263.960938 100.996094 C 264.652344 99.941406 265.265625 98.84375 265.796875 97.695312 C 266.324219 96.550781 266.765625 95.371094 267.121094 94.15625 C 267.476562 92.945312 267.738281 91.714844 267.90625 90.460938 C 268.078125 89.210938 268.152344 87.953125 268.136719 86.691406 C 268.140625 85.835938 268.101562 84.980469 268.023438 84.128906 C 267.945312 83.277344 267.820312 82.433594 267.660156 81.59375 C 267.496094 80.753906 267.292969 79.921875 267.046875 79.101562 C 266.800781 78.285156 266.515625 77.476562 266.191406 76.6875 C 265.867188 75.894531 265.503906 75.121094 265.105469 74.367188 C 264.703125 73.609375 264.269531 72.875 263.792969 72.164062 C 263.320312 71.449219 262.816406 70.761719 262.273438 70.097656 C 261.734375 69.4375 261.160156 68.800781 260.558594 68.195312 C 259.953125 67.589844 259.324219 67.011719 258.664062 66.46875 C 258.003906 65.925781 257.316406 65.414062 256.609375 64.9375 C 255.898438 64.460938 255.164062 64.019531 254.410156 63.617188 C 253.65625 63.210938 252.886719 62.84375 252.097656 62.515625 C 251.304688 62.1875 250.503906 61.898438 249.683594 61.652344 C 248.867188 61.402344 248.039062 61.195312 247.199219 61.027344 C 246.359375 60.859375 245.515625 60.734375 244.664062 60.648438 C 243.8125 60.566406 242.960938 60.523438 242.105469 60.523438 C 241.246094 60.523438 240.390625 60.5625 239.535156 60.648438 C 238.683594 60.730469 237.835938 60.859375 236.992188 61.023438 C 236.152344 61.191406 235.320312 61.398438 234.5 61.648438 C 233.679688 61.898438 232.871094 62.183594 232.078125 62.511719 C 231.285156 62.839844 230.511719 63.207031 229.753906 63.609375 C 228.996094 64.011719 228.261719 64.453125 227.546875 64.929688 C 226.832031 65.40625 226.144531 65.914062 225.480469 66.457031 C 224.816406 67 224.179688 67.574219 223.574219 68.183594 C 222.964844 68.789062 222.390625 69.421875 221.84375 70.082031 C 221.296875 70.746094 220.785156 71.433594 220.308594 72.144531 C 219.828125 72.859375 219.386719 73.59375 218.980469 74.347656 C 218.574219 75.105469 218.207031 75.878906 217.878906 76.671875 C 217.546875 77.460938 217.257812 78.269531 217.003906 79.089844 C 216.753906 79.910156 216.542969 80.738281 216.375 81.582031 C 216.203125 82.421875 216.074219 83.269531 215.988281 84.125 C 215.902344 84.976562 215.855469 85.832031 215.855469 86.691406 C 215.855469 97.324219 221.496094 106.394531 231.191406 110.492188 L 231.191406 144.953125 C 223.105469 146.121094 215.414062 148.539062 208.109375 152.199219 L 115.367188 81.960938 C 116.019531 79.507812 116.582031 76.96875 116.582031 74.300781 C 116.582031 58.289062 103.609375 45.3125 87.597656 45.3125 C 71.589844 45.3125 58.636719 58.289062 58.636719 74.300781 C 58.636719 90.316406 71.609375 103.289062 87.621094 103.289062 C 93.085938 103.289062 98.140625 101.683594 102.503906 99.058594 L 108.578125 103.660156 L 191.773438 163.65625 C 187.371094 167.691406 183.269531 172.292969 179.992188 177.457031 C 173.355469 187.980469 169.296875 199.542969 169.296875 212.171875 L 169.296875 214.777344 C 169.328125 223.410156 170.847656 231.769531 173.855469 239.859375 C 176.371094 246.71875 180.058594 252.964844 184.636719 258.609375 L 157 286.316406 C 148.820312 283.277344 139.644531 285.296875 133.460938 291.480469 C 129.25 295.667969 126.886719 301.375 126.910156 307.320312 C 126.929688 313.265625 129.25 318.929688 133.480469 323.160156 C 137.710938 327.390625 143.375 329.734375 149.320312 329.734375 C 155.261719 329.734375 160.96875 327.390625 165.15625 323.160156 C 169.34375 318.929688 171.726562 313.265625 171.707031 307.320312 C 171.703125 305.023438 171.359375 302.78125 170.664062 300.59375 L 199.214844 272.039062 C 203.121094 274.75 207.351562 277.03125 211.90625 278.984375 C 216.585938 281.035156 221.429688 282.589844 226.433594 283.640625 C 231.433594 284.695312 236.492188 285.226562 241.605469 285.230469 L 243.558594 285.230469 C 255.53125 285.230469 266.835938 282.410156 277.441406 276.660156 C 282.894531 273.738281 287.875 270.152344 292.375 265.910156 C 296.878906 261.667969 300.753906 256.910156 303.996094 251.644531 C 310.65625 241.011719 314.300781 229.226562 314.300781 216.273438 L 314.300781 215.625 C 314.300781 202.886719 311.351562 191.148438 305.191406 180.386719 Z M 270.371094 240.335938 C 262.625 248.953125 253.710938 254.269531 243.644531 254.269531 L 241.734375 254.269531 C 235.984375 254.269531 230.34375 252.683594 224.855469 249.777344 C 221.847656 248.210938 219.089844 246.285156 216.582031 244.003906 C 214.074219 241.71875 211.902344 239.152344 210.0625 236.300781 C 206.070312 230.660156 203.902344 224.496094 203.902344 217.964844 L 203.902344 216.015625 C 203.902344 209.589844 205.136719 203.492188 208.238281 197.742188 C 211.558594 191.234375 216.050781 186.570312 222.015625 182.683594 C 227.980469 178.800781 234.121094 176.933594 241.105469 176.933594 L 241.757812 176.933594 C 248.046875 176.933594 254.058594 178.171875 259.699219 181.058594 C 262.554688 182.558594 265.175781 184.398438 267.566406 186.570312 C 269.953125 188.742188 272.03125 191.179688 273.796875 193.882812 C 275.546875 196.589844 276.957031 199.46875 278.023438 202.511719 C 279.089844 205.554688 279.785156 208.683594 280.113281 211.890625 L 280.261719 215.949219 C 280.261719 224.78125 276.878906 232.960938 270.132812 240.382812 Z M 270.371094 240.335938 " fill-opacity="1" fill-rule="nonzero"/></g></svg>